<svg width="219" height="63" viewBox="0 0 219 63" fill="none" xmlns="http://www.w3.org/2000/svg">
<path d="M3.26133 17.3008H11.2594C14.9039 17.3008 17.5465 17.8223 19.1871 18.8652C20.8395 19.8965 21.6656 21.543 21.6656 23.8047C21.6656 25.3398 21.3023 26.5996 20.5758 27.584C19.8609 28.5684 18.9059 29.1602 17.7105 29.3594V29.5352C19.3395 29.8984 20.5113 30.5781 21.2262 31.5742C21.9527 32.5703 22.316 33.8945 22.316 35.5469C22.316 37.8906 21.4664 39.7188 19.7672 41.0312C18.0797 42.3438 15.7828 43 12.8766 43H3.26133V17.3008ZM8.71055 27.4785H11.8746C13.3512 27.4785 14.4176 27.25 15.0738 26.793C15.7418 26.3359 16.0758 25.5801 16.0758 24.5254C16.0758 23.541 15.7125 22.8379 14.9859 22.416C14.2711 21.9824 13.1344 21.7656 11.5758 21.7656H8.71055V27.4785ZM8.71055 31.8027V38.5H12.2613C13.7613 38.5 14.8688 38.2129 15.5836 37.6387C16.2984 37.0645 16.6559 36.1855 16.6559 35.002C16.6559 32.8691 15.1324 31.8027 12.0855 31.8027H8.71055ZM45.8496 43H31.0488V17.3008H45.8496V21.7656H36.498V27.4082H45.1992V31.873H36.498V38.5H45.8496V43ZM64.7426 43H59.2934V21.8359H52.3148V17.3008H71.7211V21.8359H64.7426V43ZM84.7254 28.709H86.4832C88.2059 28.709 89.4773 28.4219 90.2977 27.8477C91.118 27.2734 91.5281 26.3711 91.5281 25.1406C91.5281 23.9219 91.1063 23.0547 90.2625 22.5391C89.4305 22.0234 88.1356 21.7656 86.3777 21.7656H84.7254V28.709ZM84.7254 33.1387V43H79.2762V17.3008H86.7645C90.2566 17.3008 92.8406 17.9395 94.5164 19.2168C96.1922 20.4824 97.0301 22.4102 97.0301 25C97.0301 26.5117 96.6141 27.8594 95.782 29.043C94.95 30.2148 93.7723 31.1348 92.2488 31.8027C96.116 37.5801 98.6356 41.3125 99.8074 43H93.7606L87.6258 33.1387H84.7254ZM121.443 43H106.642V17.3008H121.443V21.7656H112.091V27.4082H120.792V31.873H112.091V38.5H121.443V43ZM153.22 43H146.295L135.115 23.5586H134.957C135.179 26.9922 135.291 29.4414 135.291 30.9062V43H130.421V17.3008H137.295L148.457 36.5488H148.58C148.404 33.209 148.316 30.8477 148.316 29.4648V17.3008H153.22V43ZM184.629 29.9043C184.629 34.1348 183.422 37.375 181.008 39.625C178.605 41.875 175.131 43 170.584 43H163.307V17.3008H171.375C175.57 17.3008 178.828 18.4082 181.148 20.623C183.469 22.8379 184.629 25.9316 184.629 29.9043ZM178.969 30.0449C178.969 24.5254 176.531 21.7656 171.656 21.7656H168.756V38.5H171.094C176.344 38.5 178.969 35.6816 178.969 30.0449ZM216.881 30.1152C216.881 34.3691 215.827 37.6387 213.717 39.9238C211.608 42.209 208.584 43.3516 204.647 43.3516C200.709 43.3516 197.686 42.209 195.577 39.9238C193.467 37.6387 192.413 34.3574 192.413 30.0801C192.413 25.8027 193.467 22.5391 195.577 20.2891C197.698 18.0273 200.733 16.8965 204.682 16.8965C208.631 16.8965 211.649 18.0332 213.735 20.3066C215.832 22.5801 216.881 25.8496 216.881 30.1152ZM198.125 30.1152C198.125 32.9863 198.67 35.1484 199.76 36.6016C200.85 38.0547 202.479 38.7812 204.647 38.7812C208.995 38.7812 211.168 35.8926 211.168 30.1152C211.168 24.3262 209.006 21.4316 204.682 21.4316C202.514 21.4316 200.879 22.1641 199.778 23.6289C198.676 25.082 198.125 27.2441 198.125 30.1152Z" fill="#282828"/>
<line y1="60.5" x2="48" y2="60.5" stroke="#282828" stroke-width="5"/>
</svg>
