<svg width="21" height="19" viewBox="0 0 21 19" fill="none" xmlns="http://www.w3.org/2000/svg">
<path d="M15.0456 0.807365C13.2938 0.798003 11.6284 1.56736 10.5 2.90734C9.37863 1.5582 7.70864 0.786656 5.9544 0.807365C2.66586 0.807365 0 3.47323 0 6.76176C0 12.3972 9.83543 17.8997 10.2342 18.1124C10.3951 18.2199 10.6049 18.2199 10.7658 18.1124C11.1646 17.8997 21 12.477 21 6.76176C21 3.47323 18.3341 0.807365 15.0456 0.807365ZM10.5 17.0491C8.95821 16.1453 1.06329 11.334 1.06329 6.76176C1.06329 4.06049 3.25312 1.87061 5.95445 1.87061C7.60866 1.84888 9.15674 2.68326 10.0481 4.07692C10.2291 4.32649 10.5782 4.3821 10.8277 4.20107C10.8754 4.16647 10.9173 4.12459 10.9519 4.07692C12.4302 1.81606 15.4614 1.18169 17.7223 2.66001C19.1063 3.56502 19.9394 5.10806 19.9367 6.76171C19.9367 11.3871 12.0417 16.1719 10.5 17.0491Z" fill="#696969"/>
</svg>
