<svg width="50" height="50" viewBox="0 0 50 50" fill="none" xmlns="http://www.w3.org/2000/svg">
<circle cx="25" cy="25" r="25" fill="white"/>
<g clip-path="url(#clip0)">
<path d="M36.9756 19.3501C36.917 18.0217 36.7022 17.1085 36.3945 16.3172C36.077 15.4772 35.5886 14.7252 34.9488 14.1C34.3236 13.4651 33.5667 12.9718 32.7364 12.6593C31.9405 12.3516 31.0321 12.1368 29.7037 12.0782C28.3654 12.0147 27.9406 12 24.5464 12C21.1522 12 20.7273 12.0147 19.394 12.0733C18.0657 12.1318 17.1524 12.3468 16.3613 12.6543C15.5211 12.9718 14.7691 13.4602 14.144 14.1C13.5091 14.7252 13.0159 15.4822 12.7033 16.3124C12.3955 17.1085 12.1807 18.0168 12.1222 19.3451C12.0586 20.6834 12.0439 21.1082 12.0439 24.5024C12.0439 27.8967 12.0586 28.3215 12.1172 29.6548C12.1758 30.9832 12.3908 31.8964 12.6985 32.6877C13.0159 33.5277 13.5091 34.2797 14.144 34.9049C14.7691 35.5398 15.5261 36.0331 16.3563 36.3456C17.1524 36.6533 18.0607 36.8681 19.3892 36.9267C20.7224 36.9854 21.1474 36.9999 24.5416 36.9999C27.9358 36.9999 28.3607 36.9854 29.694 36.9267C31.0223 36.8681 31.9356 36.6533 32.7267 36.3456C34.4068 35.696 35.7352 34.3677 36.3847 32.6877C36.6923 31.8916 36.9073 30.9832 36.9658 29.6548C37.0244 28.3215 37.0391 27.8967 37.0391 24.5024C37.0391 21.1082 37.0341 20.6834 36.9756 19.3501ZM34.7243 29.5571C34.6705 30.7781 34.4654 31.4374 34.2945 31.8769C33.8744 32.966 33.01 33.8304 31.9209 34.2505C31.4813 34.4214 30.8172 34.6265 29.6011 34.6801C28.2825 34.7389 27.887 34.7534 24.5513 34.7534C21.2157 34.7534 20.8153 34.7389 19.5014 34.6801C18.2805 34.6265 17.6212 34.4214 17.1816 34.2505C16.6396 34.0502 16.1463 33.7328 15.7459 33.3176C15.3308 32.9123 15.0133 32.4239 14.813 31.8819C14.6421 31.4424 14.437 30.7781 14.3834 29.5621C14.3246 28.2435 14.3101 27.8478 14.3101 24.5122C14.3101 21.1765 14.3246 20.7761 14.3834 19.4624C14.437 18.2415 14.6421 17.5822 14.813 17.1426C15.0133 16.6005 15.3308 16.1073 15.7508 15.7067C16.156 15.2916 16.6444 14.9741 17.1866 14.774C17.6261 14.6031 18.2904 14.398 19.5064 14.3442C20.825 14.2856 21.2207 14.271 24.5561 14.271C27.8967 14.271 28.2922 14.2856 29.606 14.3442C30.827 14.398 31.4863 14.6031 31.9258 14.774C32.4678 14.9741 32.9611 15.2916 33.3616 15.7067C33.7767 16.1121 34.0941 16.6005 34.2945 17.1426C34.4654 17.5822 34.6705 18.2463 34.7243 19.4624C34.7828 20.7811 34.7975 21.1765 34.7975 24.5122C34.7975 27.8478 34.7828 28.2385 34.7243 29.5571Z" fill="black"/>
<path d="M24.5464 18.0801C21.0009 18.0801 18.1243 20.9565 18.1243 24.5022C18.1243 28.0479 21.0009 30.9244 24.5464 30.9244C28.0921 30.9244 30.9686 28.0479 30.9686 24.5022C30.9686 20.9565 28.0921 18.0801 24.5464 18.0801ZM24.5464 28.6681C22.2463 28.6681 20.3805 26.8026 20.3805 24.5022C20.3805 22.2019 22.2463 20.3363 24.5464 20.3363C26.8468 20.3363 28.7123 22.2019 28.7123 24.5022C28.7123 26.8026 26.8468 28.6681 24.5464 28.6681Z" fill="black"/>
<path d="M32.7219 17.8264C32.7219 18.6544 32.0506 19.3257 31.2224 19.3257C30.3945 19.3257 29.7231 18.6544 29.7231 17.8264C29.7231 16.9983 30.3945 16.3271 31.2224 16.3271C32.0506 16.3271 32.7219 16.9983 32.7219 17.8264Z" fill="black"/>
</g>
<defs>
<clipPath id="clip0">
<rect width="25" height="25" fill="white" transform="translate(12 12)"/>
</clipPath>
</defs>
</svg>
