<svg width="147" height="37" viewBox="0 0 147 37" fill="none" xmlns="http://www.w3.org/2000/svg">
<path d="M0.2 36V0.999998H7.9V29H25.35V36H0.2ZM59.4551 31.35C55.9217 34.85 51.4884 36.6 46.1551 36.6C40.8217 36.6 36.3884 34.85 32.8551 31.35C29.3551 27.85 27.6051 23.5667 27.6051 18.5C27.6051 13.4667 29.3717 9.2 32.9051 5.7C36.4717 2.16667 40.9217 0.399999 46.2551 0.399999C51.5884 0.399999 56.0051 2.15 59.5051 5.65C63.0384 9.15 64.8051 13.4333 64.8051 18.5C64.8051 23.5333 63.0217 27.8167 59.4551 31.35ZM38.6551 26.3C40.6551 28.4333 43.1884 29.5 46.2551 29.5C49.3217 29.5 51.8384 28.45 53.8051 26.35C55.7717 24.2167 56.7551 21.6 56.7551 18.5C56.7551 15.4333 55.7551 12.8333 53.7551 10.7C51.7551 8.56666 49.2217 7.5 46.1551 7.5C43.0884 7.5 40.5717 8.56666 38.6051 10.7C36.6384 12.8 35.6551 15.4 35.6551 18.5C35.6551 21.5667 36.6551 24.1667 38.6551 26.3ZM88.4855 36.6C83.0522 36.6 78.6189 34.9 75.1855 31.5C71.7855 28.1 70.0855 23.7667 70.0855 18.5C70.0855 13.4667 71.8355 9.2 75.3355 5.7C78.8355 2.16667 83.2022 0.399999 88.4355 0.399999C91.4689 0.399999 94.0355 0.799999 96.1355 1.6C98.2355 2.36667 100.252 3.56667 102.186 5.2L97.3355 11.05C95.8689 9.81667 94.4522 8.91667 93.0855 8.35C91.7189 7.78333 90.0855 7.5 88.1855 7.5C85.3855 7.5 83.0022 8.58333 81.0355 10.75C79.1022 12.8833 78.1355 15.4667 78.1355 18.5C78.1355 21.7 79.1189 24.35 81.0855 26.45C83.0855 28.55 85.6355 29.6 88.7355 29.6C91.6022 29.6 94.0189 28.9 95.9855 27.5V22.5H88.2355V15.85H103.436V31.05C99.0689 34.75 94.0855 36.6 88.4855 36.6ZM141.145 31.35C137.611 34.85 133.178 36.6 127.845 36.6C122.511 36.6 118.078 34.85 114.545 31.35C111.045 27.85 109.295 23.5667 109.295 18.5C109.295 13.4667 111.061 9.2 114.595 5.7C118.161 2.16667 122.611 0.399999 127.945 0.399999C133.278 0.399999 137.695 2.15 141.195 5.65C144.728 9.15 146.495 13.4333 146.495 18.5C146.495 23.5333 144.711 27.8167 141.145 31.35ZM120.345 26.3C122.345 28.4333 124.878 29.5 127.945 29.5C131.011 29.5 133.528 28.45 135.495 26.35C137.461 24.2167 138.445 21.6 138.445 18.5C138.445 15.4333 137.445 12.8333 135.445 10.7C133.445 8.56666 130.911 7.5 127.845 7.5C124.778 7.5 122.261 8.56666 120.295 10.7C118.328 12.8 117.345 15.4 117.345 18.5C117.345 21.5667 118.345 24.1667 120.345 26.3Z" fill="black"/>
</svg>
