<svg width="191" height="48" viewBox="0 0 191 48" fill="none" xmlns="http://www.w3.org/2000/svg">
<path d="M0.46 47V1.5H10.47V37.9H33.155V47H0.46ZM77.4916 40.955C72.8983 45.505 67.1349 47.78 60.2016 47.78C53.2683 47.78 47.5049 45.505 42.9116 40.955C38.3616 36.405 36.0866 30.8367 36.0866 24.25C36.0866 17.7067 38.3833 12.16 42.9766 7.61C47.6133 3.01667 53.3983 0.719999 60.3316 0.719999C67.2649 0.719999 73.0066 2.995 77.5566 7.545C82.1499 12.095 84.4466 17.6633 84.4466 24.25C84.4466 30.7933 82.1283 36.3617 77.4916 40.955ZM50.4516 34.39C53.0516 37.1633 56.3449 38.55 60.3316 38.55C64.3183 38.55 67.5899 37.185 70.1466 34.455C72.7033 31.6817 73.9816 28.28 73.9816 24.25C73.9816 20.2633 72.6816 16.8833 70.0816 14.11C67.4816 11.3367 64.1883 9.95 60.2016 9.95C56.2149 9.95 52.9433 11.3367 50.3866 14.11C47.8299 16.84 46.5516 20.22 46.5516 24.25C46.5516 28.2367 47.8516 31.6167 50.4516 34.39ZM115.231 47.78C108.168 47.78 102.405 45.57 97.9412 41.15C93.5212 36.73 91.3112 31.0967 91.3112 24.25C91.3112 17.7067 93.5862 12.16 98.1362 7.61C102.686 3.01667 108.363 0.719999 115.166 0.719999C119.11 0.719999 122.446 1.24 125.176 2.28C127.906 3.27667 130.528 4.83666 133.041 6.96L126.736 14.565C124.83 12.9617 122.988 11.7917 121.211 11.055C119.435 10.3183 117.311 9.95 114.841 9.95C111.201 9.95 108.103 11.3583 105.546 14.175C103.033 16.9483 101.776 20.3067 101.776 24.25C101.776 28.41 103.055 31.855 105.611 34.585C108.211 37.315 111.526 38.68 115.556 38.68C119.283 38.68 122.425 37.77 124.981 35.95V29.45H114.906V20.805H134.666V40.565C128.99 45.375 122.511 47.78 115.231 47.78ZM183.688 40.955C179.095 45.505 173.331 47.78 166.398 47.78C159.465 47.78 153.701 45.505 149.108 40.955C144.558 36.405 142.283 30.8367 142.283 24.25C142.283 17.7067 144.58 12.16 149.173 7.61C153.81 3.01667 159.595 0.719999 166.528 0.719999C173.461 0.719999 179.203 2.995 183.753 7.545C188.346 12.095 190.643 17.6633 190.643 24.25C190.643 30.7933 188.325 36.3617 183.688 40.955ZM156.648 34.39C159.248 37.1633 162.541 38.55 166.528 38.55C170.515 38.55 173.786 37.185 176.343 34.455C178.9 31.6817 180.178 28.28 180.178 24.25C180.178 20.2633 178.878 16.8833 176.278 14.11C173.678 11.3367 170.385 9.95 166.398 9.95C162.411 9.95 159.14 11.3367 156.583 14.11C154.026 16.84 152.748 20.22 152.748 24.25C152.748 28.2367 154.048 31.6167 156.648 34.39Z" fill="white"/>
</svg>
