<svg width="24" height="24" viewBox="0 0 24 24" fill="none" xmlns="http://www.w3.org/2000/svg">
<path d="M2.00002 3H22C23.103 3 24 3.89695 24 5.00002V19C24 20.103 23.103 21 22 21H1.99997C0.896952 21 0 20.103 0 19V5.00002C0 3.89695 0.896954 3 2.00002 3ZM22 3.99998H1.99997C1.92628 3.99998 1.86136 4.02684 1.79222 4.04203C3.52374 5.62673 9.26517 10.8792 11.2744 12.6894C11.4316 12.831 11.685 13 12 13C12.3149 13 12.5683 12.831 12.726 12.689C14.7351 10.879 20.4768 5.62627 22.2081 4.04213C22.1388 4.02694 22.0737 3.99998 22 3.99998ZM23 19V5.00002C23 4.90205 22.9705 4.81317 22.944 4.72364C21.6188 5.93658 17.6127 9.60145 15.015 11.9636C17.6042 14.1877 21.6114 17.9868 22.9472 19.2606C22.9708 19.1756 23 19.0924 23 19ZM2.00002 20H22C22.0799 20 22.1509 19.9722 22.2255 19.9544C20.8451 18.6385 16.8125 14.8175 14.2688 12.6414C13.9372 12.9422 13.6343 13.2165 13.3955 13.4317C12.9834 13.8038 12.501 14 12 14C11.499 14 11.0166 13.8037 10.605 13.4321C10.3661 13.2169 10.063 12.9424 9.7312 12.6414C7.18739 14.8173 3.1553 18.638 1.77455 19.9544C1.84912 19.9722 1.92005 20 2.00002 20ZM0.999985 19C0.999985 19.0924 1.02924 19.1756 1.05277 19.2606C2.38908 17.9862 6.39577 14.1875 8.98491 11.9637C6.38719 9.6015 2.38167 5.93695 1.05595 4.72355C1.02952 4.81308 0.999985 4.902 0.999985 4.99997V19Z" fill="#888888"/>
</svg>
