<svg width="18" height="18" viewBox="0 0 18 18" fill="none" xmlns="http://www.w3.org/2000/svg">
<path d="M13.1848 11.7769L13.1848 11.777L13.1893 11.7785C14.2664 12.1344 15.4015 12.3149 16.5557 12.3149C17.0759 12.3149 17.5 12.739 17.5 13.2593V16.5556C17.5 17.0759 17.076 17.5 16.5557 17.5C7.70292 17.5 0.5 10.2971 0.5 1.44436C0.5 0.924096 0.924096 0.5 1.44436 0.5H4.74998C5.27024 0.5 5.69433 0.924084 5.6943 1.44438V1.44441C5.6943 2.59805 5.87502 3.73122 6.23141 4.81211C6.3401 5.16218 6.24787 5.52832 5.99628 5.77957L5.97127 5.80454L5.95003 5.83278L4.46714 7.80396L4.27602 8.05802L4.42501 8.33887C5.70791 10.7572 7.22594 12.2741 9.66005 13.5735L9.94182 13.7239L10.1967 13.5314L12.2207 12.0036L12.2511 11.9806L12.2777 11.9533C12.3486 11.8805 12.485 11.8008 12.6687 11.7597C12.849 11.7193 13.0339 11.7255 13.1848 11.7769Z" stroke="#888888"/>
</svg>
