<svg width="33" height="34" viewBox="0 0 33 34" fill="none" xmlns="http://www.w3.org/2000/svg">
<path d="M32.263 31.2218L22.9979 21.9565C24.7926 19.7397 25.8731 16.9227 25.8731 13.8547C25.8731 6.74388 20.0873 0.958008 12.9766 0.958008C5.86583 0.958008 0.0800781 6.74382 0.0800781 13.8546C0.0800781 20.9655 5.86589 26.7513 12.9766 26.7513C16.0446 26.7513 18.8615 25.6708 21.0784 23.8761L30.3435 33.1413C30.6082 33.406 30.9557 33.5391 31.3033 33.5391C31.6509 33.5391 31.9984 33.406 32.2631 33.1413C32.7939 32.6105 32.7939 31.7525 32.263 31.2218ZM12.9766 24.0362C7.36187 24.0362 2.79516 19.4695 2.79516 13.8546C2.79516 8.23982 7.36187 3.67306 12.9766 3.67306C18.5914 3.67306 23.1581 8.23982 23.1581 13.8546C23.1581 19.4695 18.5913 24.0362 12.9766 24.0362Z" fill="#DEDEDE"/>
</svg>
