<svg width="15" height="15" viewBox="0 0 15 15" fill="none" xmlns="http://www.w3.org/2000/svg">
    <path d="M14.8167 13.933L10.5511 9.66739C11.3774 8.64679 11.8749 7.34992 11.8749 5.93744C11.8749 2.66373 9.21113 0 5.93742 0C2.6637 0 0 2.6637 0 5.93742C0 9.21113 2.66373 11.8749 5.93745 11.8749C7.34992 11.8749 8.64679 11.3774 9.66739 10.5511L13.933 14.8167C14.0548 14.9386 14.2148 14.9998 14.3749 14.9998C14.5349 14.9998 14.6949 14.9386 14.8167 14.8167C15.0611 14.5723 15.0611 14.1773 14.8167 13.933ZM5.93745 10.6249C3.35246 10.6249 1.25 8.5224 1.25 5.93742C1.25 3.35243 3.35246 1.24997 5.93745 1.24997C8.52243 1.24997 10.6249 3.35243 10.6249 5.93742C10.6249 8.5224 8.5224 10.6249 5.93745 10.6249Z" fill="#888888"/>
</svg>