<svg width="50" height="50" viewBox="0 0 50 50" fill="none" xmlns="http://www.w3.org/2000/svg">
<circle cx="25" cy="25" r="25" fill="white"/>
<path d="M30.1257 35.6807C29.9304 35.6807 29.7365 35.6229 29.5701 35.5101L23.2841 31.2462L19.9126 33.6721C19.6482 33.8622 19.3074 33.9101 19.0004 33.8003C18.6937 33.6903 18.4609 33.4363 18.3777 33.1214L16.6849 26.7059L10.6361 24.3931C10.2553 24.2474 10.0028 23.8831 10 23.4754C9.99725 23.0677 10.2448 22.7 10.6237 22.5491L33.6233 13.3974C33.7277 13.3531 33.8381 13.3275 33.9495 13.3206C33.9893 13.3183 34.0293 13.3183 34.069 13.3205C34.2997 13.3342 34.5262 13.4282 34.703 13.6016C34.7214 13.6195 34.7388 13.6378 34.7553 13.657C34.9017 13.8243 34.9822 14.0283 34.9974 14.2361C35.0011 14.2883 35.0008 14.3412 34.9962 14.3941C34.993 14.4319 34.9876 14.4695 34.98 14.5068L31.0977 34.8764C31.0353 35.2036 30.8126 35.4775 30.5049 35.6051C30.3829 35.6558 30.254 35.6807 30.1257 35.6807ZM23.836 29.229L29.4354 33.027L32.4561 17.1773L21.546 27.6756L23.8096 29.2112C23.8187 29.2168 23.8275 29.2229 23.836 29.229ZM19.1748 28.3844L19.9245 31.2252L21.5398 30.0629L19.4247 28.6281C19.3264 28.5616 19.2422 28.4787 19.1748 28.3844ZM13.7124 23.4502L17.8658 25.0381C18.1633 25.1519 18.3879 25.4021 18.4692 25.71L18.9959 27.7062C19.02 27.476 19.1244 27.2593 19.294 27.0961L29.6898 17.0928L13.7124 23.4502Z" fill="black"/>
</svg>
