<svg width="12" height="15" viewBox="0 0 12 15" fill="none" xmlns="http://www.w3.org/2000/svg">
<path d="M5.99988 8C3.79067 8 2 6.2089 2 4C2 1.79086 3.79067 0 5.99988 0C8.20933 0 10 1.79086 10 4C9.99734 6.20793 8.20812 7.9971 5.99988 8ZM5.99988 1.55513C4.64539 1.55513 3.54744 2.65305 3.54744 4.00774C3.54744 5.36219 4.64539 6.46035 5.99988 6.46035C7.35461 6.46035 8.45256 5.36219 8.45256 4.00774C8.45232 2.65329 7.35437 1.55561 5.99988 1.55513Z" fill="#888888"/>
<path d="M5.99988 9.00014C7.59839 8.98997 9.13242 9.54249 10.2468 10.5294C11.3803 11.525 12 12.8786 12 14.3493C11.9988 14.7082 11.6614 14.999 11.2443 15H0.755683C0.33864 14.999 0.00118065 14.7082 0 14.3493C0 12.8786 0.619659 11.525 1.75318 10.5294C2.86734 9.54249 4.40161 8.98997 5.99988 9.00014ZM10.4357 13.6985C10.3066 12.8477 9.86095 12.0558 9.16619 11.4404C8.32998 10.7118 7.18961 10.3016 5.99988 10.3016C4.81039 10.3016 3.67002 10.7118 2.83381 11.4404C2.14047 12.0564 1.69533 12.8481 1.56426 13.6985H10.4357Z" fill="#888888"/>
</svg>
