<svg width="50" height="50" viewBox="0 0 50 50" fill="none" xmlns="http://www.w3.org/2000/svg">
<circle cx="25" cy="25" r="25" fill="white"/>
<g clip-path="url(#clip0)">
<path d="M25.4991 33.5817C25.497 33.5817 25.4947 33.5817 25.4924 33.5817C24.7381 33.5765 18.0692 33.5157 16.1798 33.0047C14.8593 32.6497 13.817 31.6085 13.4611 30.2879C12.9667 28.4318 12.9981 24.8584 13.0016 24.5731C12.9983 24.2891 12.9665 20.6861 13.4595 18.8148C13.4601 18.8131 13.4605 18.8111 13.4611 18.8094C13.813 17.5038 14.8788 16.4304 16.1766 16.0745C16.1798 16.0735 16.1832 16.0728 16.1865 16.0718C18.0545 15.5809 24.7366 15.5208 25.4924 15.5156H25.506C26.2622 15.5208 32.9488 15.5816 34.8209 16.0934C36.1379 16.4474 37.1795 17.4873 37.5364 18.8062C38.0493 20.6788 38.0018 24.2896 37.9967 24.5944C38.0003 24.8946 38.0302 28.436 37.5387 30.3014C37.5383 30.3033 37.5377 30.305 37.5374 30.3068C37.1813 31.6274 36.1391 32.6686 34.8171 33.024C34.8154 33.0245 34.8135 33.0249 34.8118 33.0255C32.9439 33.5163 26.2617 33.5763 25.506 33.5817C25.5037 33.5817 25.5014 33.5817 25.4991 33.5817ZM15.3474 19.3156C14.9133 20.9674 14.9543 24.5244 14.9547 24.5603V24.586C14.9417 25.5725 14.9873 28.4294 15.3476 29.7824C15.5223 30.4304 16.0364 30.9436 16.6883 31.1189C18.0824 31.496 23.5139 31.6146 25.4991 31.6286C27.4894 31.6146 32.929 31.4992 34.3128 31.1372C34.9626 30.9614 35.4749 30.4498 35.6508 29.8011C36.0115 28.4282 36.0567 25.5853 36.0435 24.6051C36.0435 24.5948 36.0435 24.5845 36.0437 24.5742C36.0616 23.5759 36.0264 20.6857 35.6525 19.3217C35.6521 19.3204 35.6518 19.3191 35.6516 19.3177C35.4761 18.667 34.9619 18.1537 34.3099 17.9784C32.9294 17.6009 27.4891 17.4827 25.4991 17.4688C23.5101 17.4827 18.0759 17.5979 16.6879 17.9595C16.0484 18.1369 15.5227 18.6685 15.3474 19.3156ZM36.5944 30.0527H36.5949H36.5944ZM23.0098 28.5035V20.5936L29.8458 24.5487L23.0098 28.5035Z" fill="black"/>
</g>
<defs>
<clipPath id="clip0">
<rect width="25" height="25" fill="white" transform="translate(13 12)"/>
</clipPath>
</defs>
</svg>
