<svg width="25" height="23" viewBox="0 0 25 23" fill="none" xmlns="http://www.w3.org/2000/svg">
<path d="M20.8124 12.4754C20.4005 12.4754 20.0668 12.8092 20.0668 13.221V20.7871H4.93422V13.221C4.93422 12.8092 4.60049 12.4754 4.18863 12.4754C3.77676 12.4754 3.44304 12.8092 3.44304 13.221V21.5327C3.44304 21.9445 3.77676 22.2783 4.18863 22.2783H20.8124C21.2242 22.2783 21.558 21.9445 21.558 21.5327V13.221C21.558 12.8092 21.2241 12.4754 20.8124 12.4754Z" fill="black"/>
<path d="M24.7816 12.6938L13.0264 0.940022C12.7354 0.648844 12.2633 0.648944 11.9721 0.940022L0.218414 12.6938C-0.0727638 12.985 -0.0727638 13.4571 0.218414 13.7481C0.364052 13.8937 0.554923 13.9665 0.745694 13.9665C0.936565 13.9665 1.12734 13.8938 1.27297 13.7481L12.4995 2.52156L23.7273 13.7481C24.0184 14.0393 24.4905 14.0392 24.7818 13.748C25.0728 13.457 25.0728 12.9849 24.7816 12.6938Z" fill="black"/>
</svg>
