<svg id="svg" xmlns="http://www.w3.org/2000/svg" xmlns:xlink="http://www.w3.org/1999/xlink" width="400" height="101.44927536231883" viewBox="0, 0, 400,101.44927536231883"><g id="svgg"><path id="path0" d="M42.550 21.845 C 41.116 25.639,39.249 30.592,38.401 32.850 C 37.553 35.109,33.240 46.579,28.816 58.340 C 24.393 70.101,20.773 79.829,20.773 79.958 C 20.773 80.087,23.359 80.193,26.519 80.193 L 32.265 80.193 34.798 72.705 L 37.331 65.217 49.959 65.217 L 62.587 65.217 65.217 72.705 L 67.848 80.193 73.538 80.193 C 76.667 80.193,79.227 80.011,79.227 79.788 C 79.227 79.565,73.813 64.946,67.196 47.300 L 55.166 15.217 50.162 15.081 L 45.157 14.945 42.550 21.845 M117.874 47.585 L 117.874 80.193 123.430 80.193 L 128.986 80.193 128.986 47.585 L 128.986 14.976 123.430 14.976 L 117.874 14.976 117.874 47.585 M170.531 19.559 L 170.531 24.142 187.217 24.269 L 203.903 24.396 202.516 26.329 C 201.754 27.391,194.245 38.298,185.831 50.565 L 170.531 72.868 170.531 76.531 L 170.531 80.193 194.444 80.193 L 218.357 80.193 218.357 75.610 L 218.357 71.027 201.233 70.900 L 184.109 70.773 196.927 52.174 C 203.977 41.944,211.466 31.027,213.568 27.913 L 217.391 22.251 217.391 18.613 L 217.391 14.976 193.961 14.976 L 170.531 14.976 170.531 19.559 M258.776 15.298 C 258.599 15.475,258.454 30.149,258.454 47.907 L 258.454 80.193 279.710 80.193 L 300.966 80.193 300.966 75.604 L 300.966 71.014 285.507 71.014 L 270.048 71.014 270.048 61.111 L 270.048 51.208 283.333 51.208 L 296.618 51.208 296.618 46.860 C 296.618 43.715,296.451 42.506,296.014 42.490 C 295.682 42.478,289.704 42.487,282.729 42.511 L 270.048 42.554 270.048 33.354 L 270.048 24.155 285.266 24.155 L 300.483 24.155 300.483 19.565 L 300.483 14.976 279.791 14.976 C 268.410 14.976,258.953 15.121,258.776 15.298 M340.580 47.585 L 340.580 80.193 360.870 80.193 L 381.159 80.193 381.159 75.604 L 381.159 71.014 366.425 71.014 L 351.691 71.014 351.691 42.995 L 351.691 14.976 346.135 14.976 L 340.580 14.976 340.580 47.585 M54.798 42.469 C 57.340 49.744,59.420 55.773,59.420 55.867 C 59.420 55.962,55.158 56.039,49.948 56.039 C 42.576 56.039,40.525 55.905,40.695 55.435 C 40.815 55.103,42.937 49.013,45.411 41.903 C 47.884 34.792,49.969 29.035,50.042 29.108 C 50.116 29.182,52.256 35.195,54.798 42.469 " stroke="none" fill="#000000" fill-rule="evenodd"></path></g></svg>