<svg fill="#FFFFFF" id="svg" xmlns="http://www.w3.org/2000/svg" xmlns:xlink="http://www.w3.org/1999/xlink" width="400" height="500" viewBox="0, 0, 400,500"><g id="svgg"><path id="path0" d="M0.000 73.988 L 0.000 147.977 45.625 147.113 C 86.214 146.345,92.215 145.683,99.992 141.115 C 124.636 126.638,128.055 88.476,105.932 74.804 L 97.723 69.730 105.550 62.737 C 116.509 52.945,118.471 30.744,109.546 17.500 C 99.039 1.907,91.830 0.008,43.125 0.004 L 0.000 0.000 0.000 73.988 M145.000 73.750 L 145.000 147.500 162.500 147.500 L 180.000 147.500 180.000 118.592 L 180.000 89.683 187.967 90.467 C 195.366 91.194,196.987 93.258,210.670 119.375 L 225.406 147.500 244.141 147.500 L 262.877 147.500 246.356 116.357 L 229.835 85.214 237.119 81.447 C 268.732 65.100,266.798 19.664,233.853 4.699 C 225.441 0.878,217.159 0.101,184.375 0.055 L 145.000 0.000 145.000 73.750 M282.500 1.249 C 282.500 1.936,291.470 19.093,302.432 39.374 L 322.365 76.250 303.057 77.500 L 283.750 78.750 283.750 93.750 L 283.750 108.750 312.506 109.449 L 341.262 110.148 350.876 128.824 L 360.490 147.500 379.204 147.500 C 389.496 147.500,397.542 146.600,397.083 145.499 C 396.625 144.399,378.813 111.239,357.500 71.811 L 318.750 0.123 300.625 0.061 C 290.656 0.028,282.500 0.562,282.500 1.249 M75.164 27.588 C 80.841 30.626,82.084 50.161,76.875 54.477 C 75.156 55.901,65.029 57.445,54.369 57.908 L 34.988 58.750 34.994 41.875 L 35.000 25.000 52.664 25.000 C 62.380 25.000,72.505 26.165,75.164 27.588 M219.444 31.392 C 223.497 34.231,224.990 37.782,224.962 44.517 C 224.896 60.270,218.015 65.000,195.164 65.000 L 180.000 65.000 180.000 46.250 L 180.000 27.500 196.944 27.500 C 208.233 27.500,215.742 28.799,219.444 31.392 M75.789 85.374 C 98.290 97.218,85.792 119.733,55.567 121.805 L 35.000 123.214 35.000 102.857 L 35.000 82.500 52.664 82.500 C 62.380 82.500,72.786 83.793,75.789 85.374 M312.518 176.334 C 293.917 184.717,285.000 198.057,285.000 217.500 C 285.000 242.105,293.628 250.497,330.899 262.142 C 358.477 270.758,362.500 273.180,362.500 281.169 C 362.500 302.132,318.954 300.532,313.674 279.375 C 311.240 269.625,280.000 268.481,280.000 278.142 C 280.000 339.374,390.434 342.738,396.734 281.698 C 399.476 255.131,387.287 242.292,349.246 231.680 C 327.879 225.719,317.500 219.857,317.500 213.750 C 317.500 199.673,353.594 198.034,360.000 211.821 C 363.645 219.666,364.194 219.893,379.653 219.946 L 395.556 220.000 393.814 210.711 C 387.948 179.443,345.471 161.481,312.518 176.334 M0.000 248.750 L 0.000 322.500 15.827 322.500 L 31.653 322.500 30.653 275.625 L 29.652 228.750 54.498 275.000 L 79.344 321.250 97.172 321.985 L 115.000 322.719 115.000 248.860 L 115.000 175.000 98.477 175.000 L 81.953 175.000 83.605 221.875 L 85.257 268.750 76.824 253.750 C 72.186 245.500,60.816 224.406,51.556 206.875 L 34.721 175.000 17.361 175.000 L 0.000 175.000 0.000 248.750 M145.000 248.797 L 145.000 322.930 185.625 322.070 C 230.701 321.115,235.111 319.861,251.034 303.465 C 270.444 283.479,274.593 229.313,258.684 203.607 C 244.361 180.464,233.814 176.389,185.833 175.457 L 145.000 174.664 145.000 248.797 M214.462 205.187 C 226.765 209.476,230.840 218.285,232.052 243.204 C 233.915 281.527,226.504 292.345,196.935 294.460 L 180.000 295.672 180.000 249.086 L 180.000 202.500 193.377 202.500 C 200.734 202.500,210.223 203.709,214.462 205.187 M0.000 422.500 L 0.000 497.500 16.250 497.500 L 32.500 497.500 32.500 467.500 L 32.500 437.500 55.000 437.500 L 77.500 437.500 77.500 467.500 L 77.500 497.500 95.037 497.500 L 112.574 497.500 111.912 423.125 L 111.250 348.750 94.375 348.011 L 77.500 347.272 77.500 377.386 L 77.500 407.500 55.000 407.500 L 32.500 407.500 32.500 377.500 L 32.500 347.500 16.250 347.500 L 0.000 347.500 0.000 422.500 M179.984 349.836 C 146.580 359.997,134.085 382.260,135.408 429.262 C 136.763 477.400,154.180 497.765,195.604 499.648 C 241.256 501.723,265.000 475.755,265.000 423.750 C 265.000 368.934,226.691 335.628,179.984 349.836 M287.500 423.750 L 287.500 497.500 305.000 497.500 L 322.500 497.500 322.500 470.000 L 322.500 442.500 339.375 442.486 C 381.824 442.451,407.747 412.446,394.841 378.288 C 386.168 355.334,373.259 350.000,326.374 350.000 L 287.500 350.000 287.500 423.750 M219.000 386.000 L 227.500 394.500 227.500 422.087 C 227.500 461.594,222.020 470.833,198.585 470.833 C 178.146 470.833,169.998 457.255,170.004 423.205 C 170.011 381.355,195.216 362.216,219.000 386.000 M356.364 383.636 C 370.533 397.806,360.929 412.500,337.500 412.500 L 322.500 412.500 322.500 395.000 L 322.500 377.500 336.364 377.500 C 347.750 377.500,351.324 378.597,356.364 383.636 M370.275 458.429 C 344.694 472.862,363.750 509.824,389.821 496.342 C 397.871 492.180,400.000 488.025,400.000 476.481 C 400.000 462.077,382.571 451.492,370.275 458.429 M391.204 466.561 C 397.731 473.088,395.278 487.742,386.875 492.421 C 372.800 500.260,356.976 482.553,365.893 468.944 C 370.890 461.318,384.664 460.021,391.204 466.561 M372.500 477.334 C 372.500 482.925,373.625 487.500,375.000 487.500 C 376.375 487.500,377.500 486.201,377.500 484.613 C 377.500 482.947,379.555 483.585,382.357 486.120 C 387.099 490.412,387.202 490.260,386.732 479.633 C 386.011 463.358,372.500 461.176,372.500 477.334 " stroke="none" fill="#FFFFFF" fill-rule="evenodd"></path></g></svg>