<?xml version="1.0" encoding="utf-8"?>
<!-- Generator: Adobe Illustrator 22.1.0, SVG Export Plug-In . SVG Version: 6.00 Build 0)  -->
<svg version="1.1" id="Layer_1" xmlns="http://www.w3.org/2000/svg" xmlns:xlink="http://www.w3.org/1999/xlink" x="0px" y="0px"
	 viewBox="0 0 500 67" style="enable-background:new 0 0 500 67;" xml:space="preserve">
<g>
	<title>Farfetch Logo</title>
	<polyline points="13.4,13.3 40,13.3 40,0 13.4,0 13.4,0 0,13.3 0,66.5 13.4,66.5 13.4,39.9 33.4,39.9 33.4,26.6 13.4,26.6 
		13.4,13.3 	"/>
	<path d="M90.9,0H77.6L64.3,13.3v53.2h13.3V39.9h13.3v26.6h13.3V13.3L90.9,0z M90.9,26.6H77.6V13.3h13.3V26.6z"/>
	<polyline points="459.5,0 459.5,66.5 472.9,66.5 472.9,39.9 486.1,39.9 486.1,66.5 499.5,66.5 499.5,0 486.1,0 486.1,26.6 
		472.9,26.6 472.9,0 459.5,0 	"/>
	<polyline points="146.6,26.6 146.6,13.3 160,13.3 160,26.6 173.4,26.6 173.4,13.3 160,0 133.3,0 133.3,66.5 146.6,66.5 146.6,39.9 
		160,39.9 160,66.5 173.4,66.5 173.4,39.9 160,26.6 146.6,26.6 	"/>
	<polyline points="215.7,13.3 242.4,13.3 242.4,0 215.7,0 202.4,13.3 202.4,66.5 215.7,66.5 215.7,39.9 235.7,39.9 235.7,26.6 
		215.7,26.6 215.7,13.3 215.7,13.3 	"/>
	<polyline points="371,0 331,0 331,13.3 344.3,13.3 344.3,66.5 357.6,66.5 357.6,13.3 371,13.3 371,0 	"/>
	<polyline points="277.6,53.2 277.6,53.2 277.6,39.9 297.6,39.9 297.6,26.6 277.6,26.6 277.6,13.3 304.3,13.3 304.3,0 277.6,0 
		264.3,13.3 264.3,13.3 264.3,53.2 264.3,53.2 277.6,66.5 304.3,66.5 304.3,53.2 277.6,53.2 	"/>
	<polyline points="408.6,53.2 408.6,13.3 435.2,13.3 435.2,0 408.6,0 395.2,13.3 395.2,53.2 408.6,66.5 435.2,66.5 435.2,53.2 
		408.6,53.2 	"/>
</g>
</svg>
