<svg width="370" height="43" class="logo-icon" xmlns="http://www.w3.org/2000/svg">
  <path d="M294.755 35.216V7.366c0-3.73-1.897-5.487-5.71-5.297v-.845C294.919.441 300.206.088 304.897.14c4.691.06 8.83.715 12.418 1.974 3.587 1.248 6.397 3.427 8.45 6.528 2.05 3.102 3.018 7.193 2.905 12.294 0 2.585-.448 5.125-1.353 7.641a18.465 18.465 0 01-4.08 6.59c-1.8 1.876-4.163 3.367-7.062 4.479-2.896 1.111-6.406 1.68-10.503 1.713h-16.625v-.842c1.914 0 3.355-.388 4.293-1.198.94-.811 1.416-2.18 1.416-4.102zm6.26 2.603c1.879.663 3.881.999 5.985.999 1.629.112 3.534-.181 5.709-.863 2.18-.679 4.19-2.386 6.044-5.116 1.845-2.73 2.768-6.779 2.768-12.129.035-4.17-.51-7.529-1.629-10.078-1.13-2.543-2.563-4.393-4.305-5.54-1.733-1.138-3.448-1.835-5.157-2.066-1.688-.243-3.284-.293-4.76-.148-1.586.258-3.138.646-4.655 1.165v33.776zm51.61-10.52H340.26l-3.044 8.64c-1.181 3.421.803 4.663 4.382 4.577v.842h-13.86l-.008-.836c1.587-.077 2.872-.403 3.83-1.014.956-.604 1.682-1.654 2.163-3.127L346.692.276h1.94l14.47 35.992c.241.508.475 1.017.742 1.524.208.388.363.638.475.741.888 1.337 2.508 1.983 4.881 1.983v.842h-16.574v-.842c2.62.033 3.931-.69 3.931-2.199 0-.439-.18-1.23-.56-2.377l-3.371-8.64zm-1.165-2.712l-5.492-13.291-4.371 13.29h9.863zm-103.28-3.764c0-2.464.432-4.903 1.293-7.315a21.856 21.856 0 013.804-6.599C254.94 4.92 257 3.317 259.46 2.104 261.917.89 264.632.276 267.635.276c3.88 0 7.293 1.01 10.252 3.017 2.949 2.015 5.21 4.609 6.761 7.769 1.552 3.171 2.327 6.426 2.327 9.76 0 3.335-.775 6.581-2.327 9.752-1.552 3.17-3.812 5.763-6.761 7.77-2.959 2.015-6.371 3.023-10.252 3.023-3.925 0-7.356-1.008-10.314-3.023-2.958-2.007-5.217-4.6-6.786-7.77-1.57-3.17-2.356-6.417-2.356-9.751zm7.15 0c0 4.926.733 8.777 2.214 11.55 1.475 2.766 3.14 4.636 4.985 5.591 1.845.966 3.554 1.45 5.106 1.45s3.25-.475 5.095-1.423c1.845-.94 3.5-2.799 4.958-5.59 1.46-2.793 2.192-6.652 2.192-11.578 0-4.927-.733-8.795-2.192-11.605-1.457-2.807-3.113-4.686-4.958-5.625-1.846-.938-3.543-1.412-5.095-1.412-1.148 0-2.356.214-3.605.655-1.259.43-2.57 1.317-3.94 2.662-1.363 1.334-2.502 3.264-3.407 5.789-.905 2.514-1.353 5.694-1.353 9.536zM5.805 35.07V6.616c0-3.806-1.87-5.615-5.605-5.425V.338h17.162v.853c-1.855-.121-3.243.282-4.166 1.189-.923.895-1.389 2.315-1.389 4.236v28.455c0 1.92.457 3.308 1.362 4.152.906.852 2.303 1.275 4.193 1.275v.845H.425v-.845c3.587.113 5.38-1.698 5.38-5.427zm51.189-5.436V6.616c0-1.619-.353-2.962-1.053-4.022-.689-1.05-2.327-1.524-4.899-1.403V.338h14.67v.853c-3.813-.19-5.718 1.583-5.718 5.315v35.628h-.905L31.287 9.046v26.025c0 1.956.483 3.35 1.441 4.185.956.827 2.404 1.242 4.336 1.242v.845H22.457v-.845c1.958 0 3.424-.415 4.39-1.242.956-.835 1.44-2.229 1.44-4.185V6.506c0-3.74-1.95-5.505-5.83-5.315V.338h9.848l24.689 29.297zm27.93 5.436V2.999h-4.14c-2.56 0-4.622.499-6.165 1.524-1.552 1.017-2.665 2.775-3.344 5.255-.217 1.094-.51 2.274-.51 3.394h-1.241L70.764.338h35.054l1.13 12.834h-1.225c0-.663-.05-1.325-.19-1.971a50.473 50.473 0 01-.284-1.423c-.68-2.48-1.777-4.238-3.285-5.255C100.454 3.498 98.419 3 95.849 3h-4.243v32.072c0 1.956.475 3.35 1.442 4.185.964.827 2.439 1.242 4.441 1.242v.845H79.087v-.845c2 0 3.475-.415 4.422-1.242.94-.835 1.415-2.229 1.415-4.185zm79.783-12.224v12.224c0 1.956.475 3.35 1.44 4.185.966.827 2.423 1.242 4.388 1.242v.845H152.48v-.845c1.99 0 3.465-.415 4.415-1.242.938-.835 1.413-2.229 1.413-4.185V6.616c0-3.806-1.95-5.615-5.828-5.425V.338h19.642c2 0 4.104.214 6.312.646 2.207.439 4.183 1.473 5.916 3.118 1.733 1.636 2.587 4.1 2.545 7.383 0 3.273-1.148 5.763-3.45 7.459-2.302 1.698-5.364 2.999-9.175 3.903l11.21 13.068c2.57 3.057 5.157 4.583 7.762 4.583v.845h-13.704c.225-1.387-.318-2.86-1.638-4.41l-12.347-14.026-.846-.06zm0-2.887c3.588.5 6.45.406 8.605-.275 2.148-.68 3.683-1.732 4.614-3.145a9.04 9.04 0 001.501-4.607c.146-1.733-.163-3.308-.94-4.721-.768-1.414-1.94-2.481-3.51-3.196-1.56-.714-3.406-.966-5.52-.732-1.845.18-3.432.56-4.75 1.127v15.55zm68.278-13.454l-13.753 34.837-14.78-33.313v27.04c0 1.957.473 3.35 1.413 4.186.95.827 2.424 1.242 4.415 1.242v.845h-13.987v-.845c3.854.077 5.78-1.731 5.78-5.427V6.616c0-3.806-1.926-5.615-5.78-5.425V.338h12.236l12.626 29.694L232.985.338h12.177v.853c-3.89-.19-5.83 1.619-5.83 5.425v28.455c0 1.956.465 3.35 1.415 4.185.949.827 2.415 1.242 4.415 1.242v.845h-17.954v-.845c3.854.077 5.777-1.731 5.777-5.427V6.506zM117.909 35.07V6.616c0-3.806-1.94-5.615-5.83-5.425V.338h31.707L145.09 12.5h-1.303c.053-2.885-.543-5.238-2.18-6.987-1.639-1.755-4.045-2.635-7.22-2.635h-10.304v15.955h9.4c2.079 0 3.225-.811 4.079-2.095.784-1.188.75-2.626.733-4.238h.845v14.99h-.854c.14-3.79-1.181-5.995-4.804-5.995h-9.4V38.74h11.246c5.943 0 8.857-5.047 8.46-9.553h1.302l-1.303 12.156H112.08v-.845c2 0 3.466-.415 4.415-1.242.94-.835 1.415-2.229 1.415-4.185z" fill="#FFFFFF" fill-rule="evenodd"></path>
</svg>