<svg xmlns="http://www.w3.org/2000/svg" xmlns:xlink="http://www.w3.org/1999/xlink" viewBox="0 0 334.75 81.5"><defs><style>.cls-1{fill:none;}.cls-2{clip-path:url(#clip-path);}.cls-3,.cls-4{fill:#fff;}.cls-4{stroke:#000;stroke-miterlimit:10;stroke-width:1.5px;}</style><clipPath id="clip-path"><rect class="cls-1" y="0.75" width="334" height="80"/></clipPath></defs><title>Asset 1</title><g id="Layer_2" data-name="Layer 2"><g id="Layer_1-2" data-name="Layer 1"><g id="Layer_1-2-2" data-name="Layer 1-2"><g class="cls-2"><rect class="cls-3" x="64.05" y="4.1" width="1" height="73.4"/><polygon points="65.8 3.35 63.3 3.35 63.3 78.25 65.8 78.25 65.8 3.35 65.8 3.35"/><rect class="cls-3" x="74.15" y="4.1" width="1" height="73.4"/><polygon points="75.9 3.35 73.4 3.35 73.4 78.25 75.9 78.25 75.9 3.35 75.9 3.35"/><rect class="cls-3" x="69.05" y="4.1" width="1" height="73.4"/><polygon points="70.8 3.35 68.3 3.35 68.3 78.25 70.8 78.25 70.8 3.35 70.8 3.35"/><rect class="cls-3" x="80.25" y="76.4" width="32.1" height="1"/><polygon points="113.1 75.65 79.5 75.65 79.5 78.15 113.1 78.15 113.1 75.65 113.1 75.65"/><rect class="cls-3" x="80.25" y="66.3" width="32.1" height="1"/><polygon points="113.1 65.55 79.5 65.55 79.5 68.05 113.1 68.05 113.1 65.55 113.1 65.55"/><rect class="cls-3" x="80.25" y="71.3" width="32.1" height="1"/><polygon points="113.1 70.55 79.5 70.55 79.5 73.05 113.1 73.05 113.1 70.55 113.1 70.55"/><rect class="cls-3" x="80.25" y="44" width="30.1" height="1"/><polygon points="111.1 43.25 79.5 43.25 79.5 45.75 111.1 45.75 111.1 43.25 111.1 43.25"/><rect class="cls-3" x="80.25" y="33.9" width="30.1" height="1"/><polygon points="111.1 33.15 79.5 33.15 79.5 35.65 111.1 35.65 111.1 33.15 111.1 33.15"/><rect class="cls-3" x="80.25" y="39" width="30.1" height="1"/><polygon points="111.1 38.25 79.5 38.25 79.5 40.75 111.1 40.75 111.1 38.25 111.1 38.25"/><rect class="cls-3" x="80.25" y="14.2" width="32.1" height="1"/><polygon points="113.1 13.45 79.5 13.45 79.5 15.95 113.1 15.95 113.1 13.45 113.1 13.45"/><rect class="cls-3" x="80.25" y="4.1" width="32.1" height="1"/><polygon points="113.1 3.35 79.5 3.35 79.5 5.85 113.1 5.85 113.1 3.35 113.1 3.35"/><rect class="cls-3" x="80.25" y="9.1" width="32.1" height="1"/><polygon points="113.1 8.35 79.5 8.35 79.5 10.85 113.1 10.85 113.1 8.35 113.1 8.35"/><rect class="cls-3" x="0.75" y="4.1" width="1" height="73.4"/><polygon points="2.5 3.35 0 3.35 0 78.25 2.5 78.25 2.5 3.35 2.5 3.35"/><rect class="cls-3" x="10.85" y="4.1" width="1" height="73.4"/><polygon points="12.6 3.35 10.1 3.35 10.1 78.25 12.6 78.25 12.6 3.35 12.6 3.35"/><rect class="cls-3" x="5.85" y="4.1" width="1" height="73.4"/><polygon points="7.6 3.35 5.1 3.35 5.1 78.25 7.6 78.25 7.6 3.35 7.6 3.35"/><path class="cls-3" d="M17.26,46.85l.74-.74L48.24,76.35l-.74.74Zm3.6-3.6.74-.74L51.84,72.75l-.74.74Zm1.8-5.4L51.4,9l.74.74L24,37.85l31.4,31.3-.74.74Zm-3.6-3.6L47.9,5.41l.74.74L19.8,35Zm-3.6-3.6L44.3,1.81l.74.74L16.2,31.39Z"/><path d="M44.3.75,14.4,30.65l1.8,1.8L46.1,2.55,44.3.75Zm3.6,3.6L18,34.25l1.8,1.8L49.7,6.15l-1.8-1.8ZM51.4,8,21.6,37.85l1.6,1.6L54.7,71l1.8-1.8L25.1,37.85,53.2,9.75,51.4,8ZM21.6,41.45l-1.8,1.8,31.3,31.3,1.8-1.8L21.6,41.45ZM18,45.05l-1.8,1.8,31.3,31.3,1.8-1.8L18,45.05Z"/><rect class="cls-3" x="153.05" y="8.58" width="1" height="64" transform="translate(0.68 83.67) rotate(-30.55)"/><polygon points="137.98 11.74 135.83 13.02 169.12 69.42 171.27 68.15 137.98 11.74 137.98 11.74"/><rect class="cls-3" x="121.65" y="4.1" width="1" height="73.4"/><polygon points="123.4 3.35 120.9 3.35 120.9 78.25 123.4 78.25 123.4 3.35 123.4 3.35"/><rect class="cls-3" x="131.75" y="4.1" width="1" height="73.4"/><polygon points="133.5 3.35 131 3.35 131 78.25 133.5 78.25 133.5 3.35 133.5 3.35"/><rect class="cls-3" x="126.65" y="4.1" width="1" height="73.4"/><polygon points="128.4 3.35 125.9 3.35 125.9 78.25 128.4 78.25 128.4 3.35 128.4 3.35"/><rect class="cls-3" x="174.45" y="4.1" width="1" height="73.4"/><polygon points="176.2 3.35 173.7 3.35 173.7 78.25 176.2 78.25 176.2 3.35 176.2 3.35"/><rect class="cls-3" x="184.65" y="4.1" width="1" height="73.4"/><polygon points="186.4 3.35 183.9 3.35 183.9 78.25 186.4 78.25 186.4 3.35 186.4 3.35"/><rect class="cls-3" x="179.55" y="4.1" width="1" height="73.4"/><polygon points="181.3 3.35 178.8 3.35 178.8 78.25 181.3 78.25 181.3 3.35 181.3 3.35"/><rect class="cls-3" x="194.25" y="76.4" width="58.1" height="1"/><polygon points="253.1 75.65 193.5 75.65 193.5 78.15 253.1 78.15 253.1 75.65 253.1 75.65"/><rect class="cls-3" x="194.25" y="66.3" width="58.1" height="1"/><polygon points="253.1 65.55 193.5 65.55 193.5 68.05 253.1 68.05 253.1 65.55 253.1 65.55"/><rect class="cls-3" x="194.25" y="71.3" width="58.1" height="1"/><polygon points="253.1 70.55 193.5 70.55 193.5 73.05 253.1 73.05 253.1 70.55 253.1 70.55"/><path class="cls-3" d="M207.46,61.35,242.3,26.51l.74.74L208.2,62.09Zm-3.58-3.52L238.7,23l.74.74L204.59,58.51Zm-3.62-3.58L235.1,19.41l.74.74L201,55Z"/><path d="M235.1,18.35l-35.9,35.9,1.8,1.8,35.9-35.9-1.8-1.8Zm3.6,3.6-35.9,35.9,1.8,1.7,35.9-35.8L238.7,22Zm3.6,3.5-35.9,35.9,1.8,1.8,35.9-35.9-1.8-1.8Z"/><rect class="cls-3" x="194.25" y="14.2" width="58.1" height="1"/><polygon points="253.1 13.45 193.5 13.45 193.5 15.95 253.1 15.95 253.1 13.45 253.1 13.45"/><rect class="cls-3" x="194.25" y="4.1" width="58.1" height="1"/><polygon points="253.1 3.35 193.5 3.35 193.5 5.85 253.1 5.85 253.1 3.35 253.1 3.35"/><rect class="cls-3" x="194.25" y="9.1" width="58.1" height="1"/><polygon points="253.1 8.35 193.5 8.35 193.5 10.85 253.1 10.85 253.1 8.35 253.1 8.35"/><path class="cls-4" d="M334,40.75a40,40,0,1,0-40,40,40,40,0,0,0,40-40m-2.5,0A37.5,37.5,0,1,1,294,3.25a37.5,37.5,0,0,1,37.5,37.5"/><path class="cls-4" d="M328.8,40.75A34.8,34.8,0,1,0,294,75.55h0a34.84,34.84,0,0,0,34.8-34.8m-2.6,0A32.2,32.2,0,1,1,294,8.55h0a32.18,32.18,0,0,1,32.2,32.16v0"/><path class="cls-4" d="M323.6,40.75A29.6,29.6,0,1,0,294,70.35a29.6,29.6,0,0,0,29.6-29.6h0m-2.6,0a27,27,0,1,1-27-27,27,27,0,0,1,27,27"/><path class="cls-3" d="M277,36.85l.6.2c1.6.4,3.2.1,3.7-1.7.4-1.6-.2-2.7-2.8-3.4l-1.2-.3-2.3,8.6,1.1.3Zm1-4,.3.1c1.1.3,2.3.8,1.9,2.1s-1.6,1.3-2.7,1l-.3-.1Zm9.5,8.4.4,2.4,1.2.3-1.7-10.1-6.5,7.9,1.2.3,1.6-1.9Zm-.1-1.1-3.1-.8,2.5-3.1Zm8.2,1.6a2.35,2.35,0,0,0,2.7-1.9,2.69,2.69,0,0,0-.6-2.4,4.43,4.43,0,0,0-2.2-1l-1.3-.3-2.2,8.6,1.1.3,1-3.6.4.1,1.6,4.3,1.3.3Zm-.5-4.3.3.1c1.1.3,2.3.8,1.9,2.2s-1.6,1.3-2.7,1l-.3-.1Zm9,1.4-1.1-.3-2.3,8.6,1.1.3Zm8.5,3.4a2.47,2.47,0,0,0-1.9-1.9c-1.3-.3-2.8.2-3.1,1.5s.4,2,1.3,2.7l.5.4c.7.5,1.3,1.1,1,2a1.69,1.69,0,0,1-2,1.3,1.63,1.63,0,0,1-1.25-1.92,1.21,1.21,0,0,1,.05-.18l-1.1-.1a2.76,2.76,0,0,0,2,3.1,2.85,2.85,0,0,0,3.5-1.9c.4-1.4-.3-2.4-1.4-3.2l-.6-.4a1.69,1.69,0,0,1-.9-1.6,1.38,1.38,0,0,1,1.76-.82l0,0a1.76,1.76,0,0,1,1.2,1.2Z"/><path d="M277.3,31.65l-2.3,8.6,1.1.3.9-3.7.6.2a4.92,4.92,0,0,0,1.18.16,2.4,2.4,0,0,0,2.52-1.86c.4-1.6-.2-2.7-2.8-3.4l-1.2-.3Zm1.27,4.56a4,4,0,0,1-1.07-.16l-.3-.1.8-3.1.3.1c1.1.3,2.3.8,1.9,2.1a1.54,1.54,0,0,1-1.63,1.16Zm8.83-2.36-6.5,7.9,1.2.3,1.6-1.9,3.8,1.1.4,2.4,1.2.3-1.7-10.1Zm0,6.3-3.1-.8,2.5-3.1.6,3.9Zm6.8-4-2.2,8.6,1.1.3,1-3.6.4.1,1.6,4.3,1.3.3-1.8-4.4a2.56,2.56,0,0,0,.39,0,2.35,2.35,0,0,0,2.31-1.93,2.69,2.69,0,0,0-.6-2.4,4.43,4.43,0,0,0-2.2-1l-1.3-.3Zm1.55,4.79a4.32,4.32,0,0,1-1.15-.19l-.3-.1.8-3.2.3.1c1.1.3,2.3.8,1.9,2.2a1.47,1.47,0,0,1-1.55,1.19ZM303,38.55l-2.3,8.6,1.1.3,2.3-8.6-1.1-.3Zm7,1.72a2.25,2.25,0,0,0-2.36,1.58c-.3,1.3.4,2,1.3,2.7l.5.4c.7.5,1.3,1.1,1,2a1.7,1.7,0,0,1-1.66,1.33,2,2,0,0,1-.34,0,1.63,1.63,0,0,1-1.25-1.92,1.21,1.21,0,0,1,.05-.18l-1.1-.1a2.76,2.76,0,0,0,2,3.1,3,3,0,0,0,.77.11,2.87,2.87,0,0,0,2.73-2c.4-1.4-.3-2.4-1.4-3.2l-.6-.4a1.69,1.69,0,0,1-.9-1.6,1.36,1.36,0,0,1,1.29-.9,1.6,1.6,0,0,1,.47.08l0,0a1.76,1.76,0,0,1,1.2,1.2l.9-.2a2.47,2.47,0,0,0-1.9-1.9,3.05,3.05,0,0,0-.74-.08Z"/></g></g></g></g></svg>