<svg width="187" height="23" viewBox="0 0 187 23" fill="none" xmlns="http://www.w3.org/2000/svg">
<path d="M13.7148 18H10.0938V3.89062H3.78906V18H0.15625V0.867188H13.7148V18ZM22.8719 8.92969H24.0672C25.1844 8.92969 26.0203 8.71094 26.575 8.27344C27.1297 7.82812 27.407 7.18359 27.407 6.33984C27.407 5.48828 27.1727 4.85938 26.7039 4.45312C26.243 4.04688 25.5164 3.84375 24.5242 3.84375H22.8719V8.92969ZM31.075 6.21094C31.075 8.05469 30.4969 9.46484 29.3406 10.4414C28.1922 11.418 26.5555 11.9062 24.4305 11.9062H22.8719V18H19.2391V0.867188H24.7117C26.7898 0.867188 28.368 1.31641 29.4461 2.21484C30.532 3.10547 31.075 4.4375 31.075 6.21094ZM51.0602 9.41016C51.0602 12.2461 50.357 14.4258 48.9508 15.9492C47.5445 17.4727 45.5289 18.2344 42.9039 18.2344C40.2789 18.2344 38.2633 17.4727 36.857 15.9492C35.4508 14.4258 34.7477 12.2383 34.7477 9.38672C34.7477 6.53516 35.4508 4.35938 36.857 2.85938C38.2711 1.35156 40.2945 0.597656 42.9273 0.597656C45.5602 0.597656 47.5719 1.35547 48.9625 2.87109C50.3609 4.38672 51.0602 6.56641 51.0602 9.41016ZM38.5563 9.41016C38.5563 11.3242 38.9195 12.7656 39.6461 13.7344C40.3727 14.7031 41.4586 15.1875 42.9039 15.1875C45.8023 15.1875 47.2516 13.2617 47.2516 9.41016C47.2516 5.55078 45.8102 3.62109 42.9273 3.62109C41.482 3.62109 40.3922 4.10938 39.6578 5.08594C38.9234 6.05469 38.5563 7.49609 38.5563 9.41016ZM69.3695 18H65.7484V3.89062H59.4437V18H55.8109V0.867188H69.3695V18ZM88.4055 0.867188L83.1086 12.9844C82.4445 14.5078 81.8195 15.6016 81.2336 16.2656C80.6555 16.9297 79.968 17.4258 79.1711 17.7539C78.3742 18.0742 77.4055 18.2344 76.2648 18.2344C75.2883 18.2344 74.3781 18.1172 73.5344 17.8828V14.7656C74.2219 15.0469 75.0773 15.1875 76.1008 15.1875C76.7492 15.1875 77.2727 15.0391 77.6711 14.7422C78.0695 14.4375 78.4016 13.9141 78.6672 13.1719L72.7375 0.867188H76.5813L80.8 10.418H80.9172L81.1281 9.83203L84.6672 0.867188H88.4055ZM104.383 14.9766H109.703V0.867188H113.324V15.1172H115.879V22.9922H112.375V18H91.7734V0.867188H95.4062V14.9766H100.727V0.867188H104.383V14.9766ZM129.583 18H119.716V0.867188H129.583V3.84375H123.348V7.60547H129.149V10.582H123.348V15H129.583V18ZM148.408 18H144.787V10.6055H138.002V18H134.369V0.867188H138.002V7.58203H144.787V0.867188H148.408V18ZM165.663 12.6445C165.663 14.4258 165.069 15.7656 163.881 16.6641C162.702 17.5547 160.952 18 158.631 18H153.944V0.867188H157.577V7.44141H158.748C160.944 7.44141 162.643 7.89844 163.846 8.8125C165.057 9.71875 165.663 10.9961 165.663 12.6445ZM157.577 15.0234H158.526C159.721 15.0234 160.596 14.8281 161.151 14.4375C161.705 14.0391 161.983 13.4414 161.983 12.6445C161.983 11.8477 161.713 11.2773 161.174 10.9336C160.643 10.5898 159.705 10.418 158.362 10.418H157.577V15.0234ZM171.37 18H167.748V0.867188H171.37V18ZM186.761 18H176.894V0.867188H186.761V3.84375H180.527V7.60547H186.327V10.582H180.527V15H186.761V18Z" fill="white"/>
</svg>
