<?xml version="1.0" encoding="utf-8"?>
<!-- Generator: Adobe Illustrator 22.0.1, SVG Export Plug-In . SVG Version: 6.00 Build 0)  -->
<svg class="fill-black-white" version="1.1" id="Layer_1" xmlns="http://www.w3.org/2000/svg" xmlns:xlink="http://www.w3.org/1999/xlink" x="0px" y="0px"
	 viewBox="0 0 535 96.8" style="enable-background:new 0 0 535 96.8;" xml:space="preserve">
<style type="text/css">
	.st0{fill:#FFFFFF;}
	.st1{fill-rule:evenodd;clip-rule:evenodd;fill:#CE0E2D;}
</style>
<g>
	<path class="st0" d="M534.9,48.4c0,26.7-21.6,48.3-48.3,48.3c-26.7,0-48.3-21.6-48.3-48.4c0-26.7,21.6-48.4,48.3-48.4
		C513.3,0,534.9,21.6,534.9,48.4z"/>
	<path class="st1" d="M510.6,85.9c0.1-0.7,0.1-1.5,0.1-2.4c0.1-1.5,0.6-2.8,1.2-3.9c1.2-2.1,3-3.7,5.7-4.4c3-0.8,6.1,0.2,7.9,1.6
		c0.1,0,0.1,0.1,0.2,0.2c1.1-1.5,2.1-3,3-4.6c-1.6-1.1-3.4-1.9-5.7-2.2c-0.7-0.1-1.5-0.1-2.4-0.1c-1.5-0.1-2.8-0.6-3.9-1.2
		c-2.1-1.2-3.7-3-4.4-5.7c-0.8-3,0.2-6.1,1.6-7.9c0.7-0.9,1.6-1.7,2.7-2.3c1.1-0.6,2.4-1.1,3.9-1.2c3.2-0.2,5.8,1.2,7.3,2.8
		c1.2,1.3,2.2,3,2.4,5.1c0.1,0.7,0,1.5,0.1,2.4c0.2,1.7,0.6,3.1,1.2,4.3c2.3-5.6,3.5-11.7,3.5-18.1c0-7.8-1.8-15.1-5.1-21.6
		c-1.8-1.7-4.1-3-7-3.3c-0.7-0.1-1.5-0.1-2.4-0.1c-1.5-0.1-2.8-0.6-3.9-1.2c-2.1-1.2-3.7-3-4.4-5.7c-0.8-3,0.2-6.1,1.6-7.9
		c0,0,0.1-0.1,0.1-0.1c-1.6-1.1-3.2-2.1-4.9-2.9c-1,1.5-1.7,3.3-2,5.4c-0.1,0.8-0.1,1.6-0.1,2.4c-0.1,1.5-0.6,2.8-1.2,3.9
		c-1.2,2.1-3.1,3.7-5.7,4.3c-3.1,0.8-6.1-0.3-7.9-1.6c-1.9-1.5-3.2-3.6-3.5-6.6c-0.2-3.3,1.1-5.7,2.8-7.2c1.3-1.2,3-2.2,5.1-2.5
		c0.7-0.1,1.5-0.1,2.4-0.1c1.3-0.1,2.5-0.4,3.5-0.8C497.5,1,492.1,0,486.6,0c-8.3,0-16.1,2.1-22.9,5.8c-0.9,1.4-1.6,3.2-1.9,5.2
		c-0.1,0.8-0.1,1.6-0.1,2.4c-0.1,1.5-0.6,2.8-1.2,3.9c-1.2,2.1-3.1,3.7-5.7,4.3c-2.9,0.7-5.7-0.1-7.5-1.4c-1,1.4-2,2.9-2.8,4.4
		c1.6,1.2,3.5,2,5.9,2.4c0.8,0.1,1.6,0.1,2.4,0.1c1.5,0.1,2.8,0.6,3.9,1.2c2.1,1.2,3.7,3.1,4.3,5.7c0.8,3.1-0.3,6.1-1.6,7.9
		c-1.5,1.9-3.6,3.2-6.6,3.5c-3.3,0.2-5.7-1.1-7.2-2.8c-1.2-1.3-2.2-3-2.5-5.1c-0.1-0.7-0.1-1.5-0.1-2.4c-0.1-1.7-0.6-3.2-1.3-4.5
		c-2.2,5.5-3.4,11.5-3.4,17.9c0,8,2,15.6,5.4,22.3c1.7,1.5,3.9,2.6,6.7,3c0.8,0.1,1.6,0.1,2.4,0.1c1.5,0.1,2.8,0.6,3.9,1.2
		c2.1,1.2,3.7,3.1,4.3,5.7c0.8,3-0.2,5.9-1.5,7.7c1.3,0.9,2.7,1.7,4.1,2.5c0.9-1.4,1.6-3.1,1.8-5c0.1-0.7,0.1-1.5,0.1-2.4
		c0.1-1.5,0.6-2.8,1.2-3.9c1.2-2.1,3-3.7,5.7-4.4c3-0.8,6.1,0.2,7.9,1.6c0.9,0.7,1.7,1.6,2.3,2.7c0.6,1.1,1.1,2.4,1.2,3.9
		c0.2,3.2-1.2,5.8-2.8,7.3c-1.3,1.2-3,2.2-5.1,2.4c-0.7,0.1-1.5,0-2.4,0.1c-1.1,0.1-2.1,0.3-3.1,0.7c5.1,1.8,10.6,2.8,16.3,2.8
		c7.8,0,15.1-1.9,21.7-5.1C509.4,90.1,510.2,88.2,510.6,85.9 M468.3,8.6c0.7-0.9,1.6-1.7,2.7-2.3c1.1-0.6,2.4-1.1,3.9-1.2
		c3.2-0.2,5.8,1.2,7.3,2.8c1.2,1.3,2.2,3,2.4,5.1c0.1,0.7,0,1.6,0.1,2.4c0.3,3.1,1.4,5.2,3,7.1c1.8,2.2,4.5,4,8.1,4.5
		c0.8,0.1,1.6,0.1,2.4,0.1c1.5,0.1,2.8,0.6,3.9,1.2c2.1,1.2,3.7,3.1,4.3,5.7c0.8,3.1-0.3,6.1-1.6,7.9c-1.5,1.9-3.6,3.2-6.6,3.5
		c-3.3,0.2-5.7-1.1-7.2-2.8c-1.2-1.3-2.2-3-2.5-5.1c-0.1-0.7-0.1-1.5-0.1-2.4c-0.3-3-1.4-5.3-3-7.1c-1.8-2.2-4.5-4-8.1-4.5
		c-0.7-0.1-1.5-0.1-2.4-0.1c-1.5-0.1-2.8-0.6-3.9-1.2c-2.1-1.2-3.7-3-4.4-5.7C465.9,13.5,466.9,10.4,468.3,8.6 M461.8,57.6
		c-0.1,0.8-0.1,1.6-0.1,2.4c-0.1,1.5-0.6,2.8-1.2,3.9c-1.2,2.1-3.1,3.7-5.7,4.3c-3.1,0.8-6.1-0.3-7.9-1.6c-1.9-1.5-3.2-3.6-3.5-6.6
		c-0.2-3.3,1.1-5.7,2.8-7.2c1.3-1.2,3-2.2,5.1-2.5c0.7-0.1,1.5-0.1,2.4-0.1c3-0.3,5.3-1.4,7.1-3c2.2-1.8,4-4.5,4.5-8.1
		c0.1-0.7,0.1-1.5,0.1-2.4c0.1-1.5,0.6-2.8,1.2-3.9c1.2-2.1,3-3.7,5.7-4.4c3-0.8,6.1,0.2,7.9,1.6c0.9,0.7,1.7,1.6,2.3,2.7
		c0.6,1.1,1.1,2.4,1.2,3.9c0.2,3.2-1.2,5.8-2.8,7.3c-1.3,1.2-3,2.2-5.1,2.4c-0.7,0.1-1.5,0-2.4,0.1c-3.1,0.3-5.2,1.4-7.1,3
		C464,51.4,462.3,54.1,461.8,57.6 M504.8,88.6c-1.5,1.9-3.6,3.2-6.6,3.5c-3.3,0.2-5.7-1.1-7.2-2.8c-1.2-1.3-2.2-3-2.5-5.1
		c-0.1-0.7-0.1-1.5-0.1-2.4c-0.3-3-1.4-5.3-3-7.1c-1.8-2.2-4.5-4-8.1-4.5c-0.7-0.1-1.5-0.1-2.4-0.1c-1.5-0.1-2.8-0.6-3.9-1.2
		c-2.1-1.2-3.7-3-4.4-5.7c-0.8-3,0.2-6.1,1.6-7.9c0.7-0.9,1.6-1.7,2.7-2.3c1.1-0.6,2.4-1.1,3.9-1.2c3.2-0.2,5.8,1.2,7.3,2.8
		c1.2,1.3,2.2,3,2.4,5.1c0.1,0.7,0,1.5,0.1,2.4c0.3,3.1,1.4,5.2,3,7.1c1.8,2.2,4.5,4,8.1,4.5c0.8,0.1,1.6,0.1,2.4,0.1
		c1.5,0.1,2.8,0.6,3.9,1.2c2.1,1.2,3.7,3.1,4.3,5.7C507.2,83.8,506.2,86.8,504.8,88.6 M505.7,63.9c-1.2,2.1-3.1,3.7-5.7,4.3
		c-3.1,0.8-6.1-0.3-7.9-1.6c-1.9-1.5-3.2-3.6-3.5-6.6c-0.2-3.3,1.1-5.7,2.8-7.2c1.3-1.2,3-2.2,5.1-2.5c0.7-0.1,1.5-0.1,2.4-0.1
		c3-0.3,5.3-1.4,7.1-3c2.2-1.8,4-4.5,4.5-8.1c0.1-0.7,0.1-1.5,0.1-2.4c0.1-1.5,0.6-2.8,1.2-3.9c1.2-2.1,3-3.7,5.7-4.4
		c3-0.8,6.1,0.2,7.9,1.6c0.9,0.7,1.7,1.6,2.3,2.7c0.6,1.1,1.1,2.4,1.2,3.9c0.2,3.2-1.2,5.8-2.8,7.3c-1.3,1.2-3,2.2-5.1,2.4
		c-0.7,0.1-1.5,0-2.4,0.1c-3.1,0.3-5.2,1.4-7.1,3c-2.2,1.8-4,4.5-4.5,8.1c-0.1,0.8-0.1,1.6-0.1,2.4
		C506.8,61.5,506.3,62.8,505.7,63.9"/>
	<g>
		<path d="M51.5,56.1c0,7.3-2.6,12.7-7.7,16.4c-4.5,3.1-10.5,4.6-18.2,4.6c-5.1,0-9.9-1-14.3-2.9c-4.8-2.1-8.6-5.1-11.3-9l9.5-8.5
			c4.3,5,9.9,7.5,16.8,7.5c7.7,0,11.5-2.4,11.5-7.2c0-2.8-1.9-4.9-5.6-6.5c-1.3-0.6-4.4-1.4-9.1-2.4c-6.9-1.6-11.9-3.6-14.9-6
			C4.5,39,2.5,34.5,2.5,28.5c0-6.1,2.4-11,7.3-14.5c4.4-3.2,9.8-4.8,16.2-4.8c9.4,0,17.4,3.5,24,10.3l-9.5,9.2
			c-4.4-4.5-9.4-6.8-15-6.8c-6.3,0-9.4,2-9.4,5.9c0,2.4,1.7,4.4,5.1,5.7c0.9,0.4,3.6,1.1,8.2,2.2c6.8,1.6,11.8,3.5,15,5.7
			C49.1,44.9,51.5,49.7,51.5,56.1"/>
		<path d="M98.1,76.1h-13v-3.3c-2.8,2.9-6.6,4.3-11.6,4.3c-12.2,0-18.3-7.5-18.3-22.6V26.7h13v26.7c0,3.6,0.5,6.3,1.5,8
			c1.3,2.3,3.5,3.5,6.9,3.5c5.6,0,8.5-3.7,8.5-11.2v-27h13V76.1z"/>
		<path d="M147.6,52c0,6.9-1.4,12.6-4.3,17.1c-3.4,5.3-8.3,8-14.9,8c-4.1,0-7.6-1.3-10.4-3.9v15.6l-13,6.5V26.7h13v3.1
			c3.1-2.8,6.6-4.1,10.4-4.1c6.8,0,11.8,2.8,15.2,8.5C146.3,38.8,147.6,44.7,147.6,52 M134.5,52.3c0-9.6-2.8-14.4-8.5-14.4
			c-3.2,0-5.9,1.4-8,4.1v18.6c2.1,2.8,5,4.2,8.8,4.2C131.9,64.9,134.5,60.7,134.5,52.3"/>
		<path d="M194.4,51.4c0,1.5-0.1,2.9-0.2,4.1h-29.5c0.2,2.9,1.2,5.2,3.1,6.8c1.9,1.7,4.2,2.5,7.1,2.5c3.6,0,6.5-1.2,8.5-3.5l9.2,7.7
			c-1.9,2.5-4.5,4.5-7.8,5.9c-3.2,1.4-6.5,2.1-9.9,2.1c-7.4,0-13.2-2.5-17.4-7.4c-3.9-4.6-5.8-10.7-5.8-18.3c0-7,1.9-13,5.6-17.8
			c4.1-5.3,9.5-8,16.4-8c6.7,0,12,2.7,15.7,8.2C192.7,38.6,194.4,44.5,194.4,51.4 M181.8,45.8c-0.2-2.6-1.1-4.8-2.6-6.4
			c-1.5-1.6-3.6-2.4-6.3-2.4c-2.4,0-4.3,0.9-5.6,2.6c-1.4,1.7-2.2,3.8-2.4,6.3H181.8z"/>
		<path d="M229.5,29.1l-3.4,12.7c-2.3-2.1-4.8-3.2-7.5-3.2c-3.2,0-5.5,1-6.8,3c-1.1,1.7-1.6,4.3-1.6,7.7v26.7h-13V26.7h13V30
			c2.8-2.9,6.1-4.3,10.2-4.3C224.3,25.7,227.3,26.8,229.5,29.1"/>
		<path d="M282.3,56.1c0,7.3-2.6,12.7-7.7,16.4c-4.5,3.1-10.5,4.6-18.2,4.6c-5.1,0-9.9-1-14.3-2.9c-4.8-2.1-8.6-5.1-11.3-9l9.5-8.5
			c4.3,5,9.9,7.5,16.8,7.5c7.7,0,11.5-2.4,11.5-7.2c0-2.8-1.9-4.9-5.5-6.5c-1.3-0.6-4.4-1.4-9.1-2.4c-6.9-1.6-11.9-3.6-14.9-6
			c-3.8-3.1-5.7-7.6-5.7-13.6c0-6.1,2.4-11,7.3-14.5c4.4-3.2,9.8-4.8,16.2-4.8c9.4,0,17.4,3.5,24,10.3l-9.5,9.2
			c-4.4-4.5-9.4-6.8-15-6.8c-6.3,0-9.4,2-9.4,5.9c0,2.4,1.7,4.4,5.1,5.7c0.9,0.4,3.6,1.1,8.2,2.2c6.8,1.6,11.8,3.5,15,5.7
			C279.9,44.9,282.3,49.7,282.3,56.1"/>
		<path d="M316,60.9l-1.9,13.2c-2.6,2-5.9,3-10.1,3c-4.1,0-7.4-1.5-9.8-4.4c-2.3-2.8-3.4-6.2-3.4-10.4V38.9h-8.3V26.7h8.3V14l13-6.5
			v19.2h11.9v12.2h-11.9v19.9c0,4,1.6,5.9,4.8,5.9C310.6,64.7,313,63.5,316,60.9"/>
		<path d="M360.9,51.4c0,1.5-0.1,2.9-0.2,4.1l-29.5,0c0.2,2.9,1.2,5.2,3.1,6.8c1.9,1.7,4.2,2.5,7.1,2.5c3.6,0,6.5-1.2,8.5-3.5
			l9.2,7.7c-1.9,2.5-4.5,4.5-7.8,5.9c-3.2,1.4-6.5,2.1-9.9,2.1c-7.4,0-13.2-2.5-17.4-7.4c-3.9-4.6-5.8-10.7-5.8-18.3
			c0-7,1.9-13,5.6-17.8c4.1-5.3,9.5-8,16.4-8c6.7,0,12,2.7,15.7,8.2C359.2,38.6,360.9,44.5,360.9,51.4 M348.3,45.8
			c-0.2-2.6-1.1-4.8-2.6-6.4c-1.5-1.6-3.6-2.4-6.3-2.4c-2.4,0-4.3,0.9-5.6,2.6c-1.4,1.7-2.2,3.8-2.4,6.3H348.3z"/>
		<path d="M408.2,52c0,6.9-1.4,12.6-4.3,17.1c-3.4,5.3-8.3,8-14.9,8c-4.1,0-7.6-1.3-10.4-3.9v15.6l-13,6.5V26.7h13v3.1
			c3.1-2.8,6.6-4.1,10.4-4.1c6.8,0,11.8,2.8,15.2,8.5C406.9,38.8,408.2,44.7,408.2,52 M395,52.3c0-9.6-2.8-14.4-8.5-14.4
			c-3.2,0-5.9,1.4-8,4.1v18.6c2.1,2.8,5,4.2,8.8,4.2C392.5,64.9,395,60.7,395,52.3"/>
	</g>
</g>
</svg>
